<?xml version="1.0" encoding="iso-8859-1"?>
<!-- Generator: Adobe Illustrator 19.0.0, SVG Export Plug-In . SVG Version: 6.00 Build 0)  -->
<svg version="1.1" id="Capa_1" xmlns="http://www.w3.org/2000/svg" xmlns:xlink="http://www.w3.org/1999/xlink" x="0px" y="0px"
	 viewBox="0 0 492.669 492.669" style="enable-background:new 0 0 492.669 492.669;" xml:space="preserve">
<path style="fill:#4DCFE0;" d="M406.204,67.918h-67.396v44.408c0,8.882-6.792,15.673-15.673,15.673H169.012
	c-8.882,0-15.673-6.792-15.673-15.673V67.918H86.465c-14.629,0-26.122,11.494-26.122,26.122v372.506
	c0,14.629,11.494,26.122,26.122,26.122h319.739c14.629,0,26.122-11.494,26.122-26.122V94.041
	C432.327,79.412,420.833,67.918,406.204,67.918z"/>
<g>
	<path style="fill:#00BBD3;" d="M161.698,218.906h64.784c8.882,0,15.673-6.792,15.673-15.673s-6.792-15.673-15.673-15.673h-64.784
		c-8.882,0-15.673,6.792-15.673,15.673S152.816,218.906,161.698,218.906z"/>
	<path style="fill:#00BBD3;" d="M146.025,265.927c0,8.882,6.792,15.673,15.673,15.673h169.273c8.882,0,15.673-6.792,15.673-15.673
		c0-8.882-6.792-15.673-15.673-15.673H161.698C152.816,250.253,146.025,257.045,146.025,265.927z"/>
	<path style="fill:#00BBD3;" d="M161.698,344.294h169.273c8.882,0,15.673-6.792,15.673-15.673s-6.792-15.673-15.673-15.673H161.698
		c-8.882,0-15.673,6.792-15.673,15.673S152.816,344.294,161.698,344.294z"/>
	<path style="fill:#00BBD3;" d="M161.698,406.988h169.273c8.882,0,15.673-6.792,15.673-15.673s-6.792-15.673-15.673-15.673H161.698
		c-8.882,0-15.673,6.792-15.673,15.673S152.816,406.988,161.698,406.988z"/>
</g>
<path style="fill:#D4E1F4;" d="M148.114,117.551c0,8.882,6.792,15.673,15.673,15.673h164.571c8.882,0,15.673-6.792,15.673-15.673
	V67.918V47.02c0-8.882-6.792-15.673-15.673-15.673h-32.914C286.563,12.539,267.233,0,245.812,0
	c-21.42,0-40.229,12.539-49.633,31.347h-32.392c-8.882,0-15.673,6.792-15.673,15.673v20.898
	C148.114,67.918,148.114,117.551,148.114,117.551z"/>
<g>
</g>
<g>
</g>
<g>
</g>
<g>
</g>
<g>
</g>
<g>
</g>
<g>
</g>
<g>
</g>
<g>
</g>
<g>
</g>
<g>
</g>
<g>
</g>
<g>
</g>
<g>
</g>
<g>
</g>
</svg>
