<?xml version="1.0" encoding="iso-8859-1"?>
<!-- Generator: Adobe Illustrator 19.0.0, SVG Export Plug-In . SVG Version: 6.00 Build 0)  -->
<svg version="1.1" id="Capa_1" xmlns="http://www.w3.org/2000/svg" xmlns:xlink="http://www.w3.org/1999/xlink" x="0px" y="0px"
	 viewBox="0 0 461.845 461.845" style="enable-background:new 0 0 461.845 461.845;" xml:space="preserve">
<path style="fill:#4DCFE0;" d="M446.171,214.727v32.914c0,16.718-4.702,21.943-19.853,21.943h-36.571
	c-4.18,17.763-11.494,34.482-21.42,49.633l27.69,27.69c12.539,12.016,12.016,19.331,1.567,29.78l-26.122,26.122
	c-10.449,10.449-17.763,10.449-29.78-1.567l-28.735-28.735c-13.061,7.837-27.69,13.584-42.841,17.241v34.482
	c0,16.718-4.702,21.943-19.853,21.943h-37.094c-14.629,0-19.853-4.702-19.853-21.943v-34.482
	c-15.151-3.657-29.78-9.404-42.841-17.241l-28.212,28.212c-12.016,12.016-18.808,12.539-29.78,1.567l-26.122-26.122
	c-10.449-10.449-10.449-17.763,1.567-29.78l26.645-27.167c-9.927-15.151-17.241-31.869-21.42-49.633v-1.045H36.049
	c-14.629,0-19.853-4.702-19.853-21.943v-32.914c0-16.718,4.702-21.943,19.853-21.943H72.62c3.657-15.151,9.927-29.78,17.241-42.841
	l-26.122-26.122c-11.494-11.494-12.539-18.808-1.567-29.78l26.122-26.122c10.449-10.449,17.763-10.449,29.78,1.567l25.078,25.078
	c15.151-9.927,31.869-17.241,49.633-21.42V37.616c0-16.718,4.702-21.943,19.853-21.943h37.094c15.673,0,19.853,5.747,19.853,21.943
	v35.527c17.763,4.702,34.482,12.016,49.633,21.42l25.078-25.078c11.494-12.016,19.331-12.016,29.78-1.567l26.122,26.122
	c10.971,10.971,9.927,18.286-1.567,29.78l-26.122,26.122c7.837,13.061,13.584,27.69,17.241,42.841h36.571
	C441.992,192.784,446.171,198.531,446.171,214.727z M295.184,230.922c0-35.004-28.212-63.216-63.216-63.216
	s-63.216,28.212-63.216,63.216s28.212,63.216,63.216,63.216S295.184,265.927,295.184,230.922z"/>
<g>
	<path style="fill:#3A2C51;" d="M250.253,461.845h-37.094c-24.033,0-35.527-12.539-35.527-37.616v-22.465
		c-8.359-2.612-16.718-5.747-24.555-9.927l-19.853,19.853c-6.792,6.792-14.629,13.584-25.6,14.106
		c-12.016,0.522-20.898-6.792-26.645-12.539l-26.122-26.122c-16.718-16.718-16.196-33.959,1.567-51.722l18.286-18.286
		c-5.747-10.449-10.449-21.42-14.106-32.914H35.527C11.494,284.212,0,271.673,0,246.596v-32.914
		c0-25.078,11.494-37.616,35.527-37.616h24.555c2.612-7.837,5.747-16.196,9.927-24.033l-17.763-17.763
		c-6.792-6.792-26.645-26.645-1.567-51.722L76.8,56.424c16.718-16.718,33.959-16.196,51.722,1.567l16.196,16.196
		c9.927-5.747,20.898-9.927,31.347-13.584V37.616C176.065,12.539,187.559,0,211.592,0h37.094c35.527,0,35.527,28.212,35.527,37.616
		v24.033c10.971,3.657,21.42,8.359,31.347,13.584l16.718-16.718c5.224-5.747,14.629-13.584,26.645-13.584c0,0,0,0,0.522,0
		c13.061,0,21.943,9.404,25.078,12.016l26.122,26.122c25.078,25.078,5.224,45.453-1.567,51.722l-17.241,17.763
		c3.657,7.837,7.314,15.673,9.927,24.555h24.555c35.527,0,35.527,28.212,35.527,37.616v32.914c0,25.078-11.494,37.616-35.527,37.616
		h-24.555c-3.657,10.971-7.837,21.42-13.584,31.347l18.808,18.808c5.747,5.747,14.106,14.629,14.106,26.645
		c0,11.494-6.792,19.853-12.539,25.6l-26.122,26.122c-5.224,5.747-14.106,12.539-26.122,12.016
		c-10.971-0.522-19.853-7.837-26.122-13.584l-19.853-20.376c-7.837,3.657-15.673,7.314-24.555,9.927v22.465
		C285.78,449.306,274.286,461.845,250.253,461.845z M209.502,430.498c1.045,0,2.09,0,3.657,0h37.094c1.567,0,3.135,0,3.657,0
		c0-1.045,0.522-3.135,0.522-6.269v-34.482c0-7.314,4.702-13.584,12.016-15.151c14.106-3.657,27.167-8.359,38.661-15.673
		c6.269-3.657,14.106-2.612,19.331,2.612l28.735,28.735c2.09,2.09,3.657,3.657,4.702,4.18c0.522-0.522,1.567-1.045,2.612-2.612
		l26.122-26.122c1.567-1.567,2.09-2.09,2.612-3.135c-0.522-1.045-2.09-2.09-4.18-4.18l-27.69-28.212
		c-5.224-5.224-6.269-13.584-2.09-19.853c8.882-14.106,15.673-28.735,19.331-44.408c1.567-7.314,7.837-12.016,15.151-12.016h36.571
		c1.567,0,3.135,0,3.657,0c0-1.045,0.522-3.135,0.522-6.269v-32.914c0-3.135,0-4.702-0.522-6.269c-1.045,0-2.09,0-3.657,0h-36.571
		c-7.314,0-13.584-4.702-15.151-12.016c-3.657-14.106-8.359-27.167-15.673-38.661c-3.657-6.269-2.612-14.106,2.612-19.331
		l26.122-26.122c2.09-2.09,3.657-3.657,4.18-4.702c-0.522-0.522-1.045-1.567-2.612-3.135l-26.122-26.122
		c-1.567-1.567-2.09-2.09-3.135-2.612c-1.045,0.522-2.09,1.567-4.18,4.18l-25.6,25.6c-5.224,5.224-13.061,6.269-19.331,2.09
		c-14.106-8.882-29.257-15.151-45.453-19.331c-6.792-1.567-11.494-7.837-11.494-15.151V37.616c0-3.135,0-4.702-0.522-6.269
		c-1.045,0-2.09,0-3.657,0h-37.094c-1.567,0-3.135,0-3.657,0c0,1.045-0.522,3.135-0.522,6.269v34.482
		c0,7.314-5.225,13.584-12.016,15.151c-15.673,3.657-30.824,10.449-44.408,19.331c-6.269,4.18-14.629,3.135-19.853-2.09
		l-25.078-25.078c-2.09-2.09-3.657-3.657-4.702-4.18c-0.522,0.522-1.567,1.045-2.612,2.612l-26.122,26.122
		c-1.045,1.045-2.09,2.09-2.612,3.135c0.522,1.045,2.09,2.612,4.18,4.702l26.122,26.122c5.224,4.702,6.269,12.539,2.612,18.808
		c-7.314,13.061-12.539,26.122-15.673,38.661c-1.567,6.792-7.837,12.016-15.151,12.016H36.571c-1.567,0-3.135,0-3.657,0
		c0,1.045-0.522,3.135-0.522,6.269v32.914c0,3.135,0,4.702,0.522,6.269c1.045,0,2.09,0,3.657,0h37.094
		c8.359,0,15.151,6.269,15.673,14.629c3.657,15.151,9.927,29.78,18.808,42.841c4.18,6.269,3.135,14.106-2.09,19.331l-26.645,27.167
		c-2.09,2.612-3.657,4.18-4.18,4.702c0.522,0.522,1.045,1.567,2.612,2.612l26.122,26.122c1.045,1.045,2.09,2.09,3.135,2.612
		c1.045-0.522,2.612-2.09,4.702-4.18l28.212-28.212c5.224-5.225,13.061-6.269,19.331-2.612
		c11.494,6.792,24.555,12.016,38.661,15.673c6.792,1.567,12.016,7.837,12.016,15.151v35.527
		C208.98,427.363,208.98,428.931,209.502,430.498z"/>
	<path style="fill:#3A2C51;" d="M231.967,309.812c-43.363,0-78.89-35.527-78.89-78.89s35.527-78.89,78.89-78.89
		s78.89,35.527,78.89,78.89S275.331,309.812,231.967,309.812z M231.967,183.38c-26.122,0-47.543,21.42-47.543,47.543
		s21.42,47.543,47.543,47.543s47.543-21.42,47.543-47.543S258.09,183.38,231.967,183.38z"/>
</g>
<g>
</g>
<g>
</g>
<g>
</g>
<g>
</g>
<g>
</g>
<g>
</g>
<g>
</g>
<g>
</g>
<g>
</g>
<g>
</g>
<g>
</g>
<g>
</g>
<g>
</g>
<g>
</g>
<g>
</g>
</svg>
